<?xml version="1.0" standalone="no"?>
<!DOCTYPE svg PUBLIC "-//W3C//DTD SVG 1.0//EN" "http://www.w3.org/TR/2001/REC-SVG-20010904/DTD/svg10.dtd">
<svg xmlns="http://www.w3.org/2000/svg" xmlns:xlink="http://www.w3.org/1999/xlink" id="body_1" width="31" height="31">

<g transform="matrix(1 0 0 1 0 0)">
	<g>
        <path d="M26 13C 26 16.589851 24.730797 19.65398 22.192387 22.192387C 19.65398 24.730797 16.589851 26 13 26C 9.410149 26 6.3460197 24.730797 3.8076124 22.192387C 1.2692041 19.65398 0 16.589851 0 13C 0 9.410149 1.2692041 6.3460197 3.8076124 3.8076124C 6.3460197 1.2692041 9.410149 0 13 0C 16.589851 0 19.65398 1.2692041 22.192387 3.8076124C 24.730797 6.3460197 26 9.410149 26 13C 26 13.151278 25.99736 13.302509 25.99208 13.453693" stroke="none" fill="#FFFFFF" fill-rule="nonzero" />
		<g>
            <path d="M18.7 16.2C 18.5 16.7 18.2 17.2 17.9 17.6C 17.5 18.2 17.1 18.7 16.9 18.9C 16.4 19.3 16 19.5 15.5 19.5C 15.2 19.5 14.8 19.4 14.3 19.2C 13.8 19 13.4 18.9 13 18.9C 12.5 18.9 12.1 19 11.6 19.2C 11.1 19.4 10.7 19.5 10.4 19.5C 10 19.5 9.5 19.3 9 18.9C 8.8 18.6 8.4 18.2 8 17.6C 7.5 16.9 7.1 16.2 6.8 15.3C 6.5 14.4 6.3 13.5 6.3 12.6C 6.3 11.6 6.6 10.7 7 10C 7.3 9.4 7.8 8.9 8.4 8.6C 8.9 8.3 9.5 8.1 10.2 8.1C 10.6 8.1 11 8.2 11.6 8.4C 12.2 8.6 12.6 8.8 12.8 8.8C 12.9 8.8 13.3 8.6 14 8.4C 14.7 8.1 15.3 8 15.7 8.1C 17 8.2 17.9 8.7 18.6 9.6C 17.4 10.2 16.9 11.2 16.9 12.4C 16.9 13.4 17.2 14.2 17.9 14.8C 18.2 15.1 18.6 15.3 19 15.5C 18.9 15.7 18.8 16 18.7 16.2zM15.8 4.8C 15.8 5.5 15.5 6.2 15 6.9C 14.3 7.7 13.5 8.1 12.7 8C 12.7 8 12.6 7.9 12.6 7.8C 12.6 7 13 6.3 13.5 5.6C 13.8 5.3 14.1 5.1 14.6 4.8C 15 4.6 15.4 4.5 15.8 4.5C 15.8 4.6 15.8 4.7 15.8 4.8z" stroke="none" fill="#1E1915" fill-rule="nonzero" />
		</g>
	</g>
</g>
</svg>